<?xml version="1.0" encoding="UTF-8"?>
<svg width="1300px" height="1300px" viewBox="0 0 1300 1300" version="1.1" xmlns="http://www.w3.org/2000/svg" xmlns:xlink="http://www.w3.org/1999/xlink">
    <!-- Generator: Sketch 47 (45396) - http://www.bohemiancoding.com/sketch -->
    <title>logo-main_black</title>
    <desc>Created with Sketch.</desc>
    <defs></defs>
    <g id="Assets" stroke="none" stroke-width="1" fill="none" fill-rule="evenodd">
        <g id="logo-main_black" fill="#000000">
            <path d="M649.56288,893.623732 C626.396849,893.623732 606.988111,911.169037 604.632911,934.231732 L570.084726,1272.96015 C569.683003,1276.86961 566.398326,1279.84112 562.475618,1279.84112 L463.045218,1279.84112 L463.045218,1274.3395 C463.045218,1271.76209 464.140111,1269.31079 466.054203,1267.58463 L478.074388,1256.77843 C481.043988,1254.10643 482.737526,1250.30732 482.737526,1246.31903 L482.737526,893.828664 L245.043495,1114.34303 C235.693588,1123.0211 221.184295,1122.82405 212.062818,1113.90952 L147.968295,1051.26348 L152.796849,1046.43971 C154.773957,1044.46133 157.365465,1043.21597 160.146018,1042.92434 L185.28128,1040.27599 C189.968049,1039.78731 194.308234,1037.54883 197.443249,1034.0177 L466.849772,729.883322 C477.089772,718.320447 482.737526,703.399844 482.737526,687.951148 L482.737526,567.474968 C482.737526,541.905801 463.667495,520.372211 438.319557,517.290353 L215.205711,490.160552 C211.779249,489.742807 208.297649,489.797981 204.879065,490.326074 L173.158695,495.260198 C169.086326,495.890757 165.021834,494.054254 162.808418,490.578298 C160.468972,486.913173 162.320049,482.034223 166.494818,480.828279 L198.451495,471.629999 C201.208418,470.833919 203.106757,468.319565 203.106757,465.442639 L203.106757,462.833701 C203.106757,460.366639 201.232049,458.30944 198.782326,458.088745 L150.520418,453.698478 C145.408295,453.225558 141.186265,449.489496 140.099249,444.46867 C139.516357,441.780912 141.540726,439.227148 144.289772,439.171975 C144.289772,439.171975 186.187126,438.36013 198.325465,438.178844 C201.098142,438.131552 202.618388,437.272416 202.594757,435.262509 C202.571126,433.591527 202.563249,431.045645 202.563249,431.045645 C202.555372,429.43772 201.555003,427.995316 200.058388,427.427813 L159.358326,411.900298 C154.128049,409.906155 151.268726,404.246888 152.788972,398.847726 C153.560911,396.065384 156.428111,394.425931 159.224418,395.158956 L225.965588,412.82249 L228.714634,412.82249 L207.714757,383.75372 C204.53248,379.339807 205.45408,373.199739 209.802142,369.928714 C211.637465,368.541484 214.197465,368.667596 215.891003,370.220347 L258.70208,409.512055 C261.017895,411.640192 264.058388,412.82249 267.209157,412.82249 L431.474511,412.82249 L299.961403,219.524627 C297.10208,215.315645 293.636234,211.548055 289.689895,208.340086 L255.945157,180.895006 C252.565957,178.144192 251.116603,173.643577 252.274511,169.426714 C253.37728,165.430546 258.008911,163.617689 261.522018,165.808881 L283.931865,179.752117 C286.617895,181.423099 290.060111,181.194521 292.501957,179.184614 L295.66848,176.575676 C297.771618,174.857403 298.141834,171.775546 296.511311,169.607999 L269.564357,133.658254 C267.516357,130.923204 267.476972,127.187142 269.469834,124.412683 C271.951065,120.960372 276.968665,120.629329 279.875249,123.734832 L311.115126,157.107167 C313.123742,159.25895 316.45568,159.471763 318.724234,157.603732 L320.023926,156.531782 C322.056172,154.860801 322.780849,152.078459 321.835618,149.627161 L307.460234,112.573937 C305.861218,108.45954 307.672911,103.801285 311.627126,101.83867 C315.258388,100.033695 319.669465,101.476099 321.536295,105.078167 L343.552295,147.428086 C344.087926,148.452745 344.733834,149.430111 345.474265,150.320776 L355.021095,161.954589 L361.692849,130.718273 C362.724726,125.886614 367.443003,122.765347 372.287311,123.711186 C375.052111,124.247161 377.037095,126.674813 377.013465,129.496565 L376.611742,181.635912 C376.572357,185.837012 378.013834,189.919881 380.684111,193.159378 C380.684111,193.159378 479.925465,314.029658 514.442142,355.867248 C546.493342,394.709683 595.283003,419.065024 649.56288,419.065024 C703.850634,419.065024 752.640295,394.709683 784.683618,355.867248 C819.208172,314.029658 918.449526,193.159378 918.449526,193.159378 C921.119803,189.919881 922.553403,185.837012 922.521895,181.635912 L922.112295,129.496565 C922.096542,126.674813 924.081526,124.247161 926.846326,123.711186 C931.690634,122.765347 936.401034,125.886614 937.432911,130.718273 L944.104665,161.954589 L953.659372,150.320776 C954.399803,149.430111 955.037834,148.452745 955.581342,147.428086 L977.597342,105.078167 C979.464172,101.476099 983.867372,100.033695 987.506511,101.83867 C991.460726,103.801285 993.264542,108.45954 991.673403,112.573937 L977.298018,149.627161 C976.344911,152.078459 977.077465,154.860801 979.109711,156.531782 L980.409403,157.603732 C982.677957,159.471763 986.002018,159.25895 988.010634,157.107167 L1019.25051,123.734832 C1022.1571,120.629329 1027.1747,120.960372 1029.6638,124.412683 C1031.65666,127.187142 1031.61728,130.923204 1029.56928,133.658254 L1002.62233,169.607999 C1000.9918,171.775546 1001.36202,174.857403 1003.46516,176.575676 L1006.6238,179.184614 C1009.07353,181.194521 1012.51574,181.423099 1015.20177,179.752117 L1037.60374,165.808881 C1041.12473,163.617689 1045.75636,165.430546 1046.85913,169.426714 C1048.00916,173.643577 1046.56768,178.144192 1043.1806,180.895006 L1009.44374,208.340086 C1005.48953,211.548055 1002.03156,215.315645 999.172234,219.524627 L867.651249,412.82249 L1031.92448,412.82249 C1035.07525,412.82249 1038.10786,411.640192 1040.43156,409.512055 L1083.24263,370.220347 C1084.9283,368.667596 1087.49617,368.541484 1089.3315,369.928714 C1093.67168,373.199739 1094.60116,379.339807 1091.41888,383.75372 L1070.41113,412.82249 L1073.16805,412.82249 L1139.90922,395.158956 C1142.69765,394.425931 1145.56485,396.065384 1146.34466,398.847726 C1147.86491,404.246888 1145.00559,409.906155 1139.76743,411.900298 L1099.07525,427.427813 C1097.57076,427.995316 1096.57826,429.43772 1096.56251,431.045645 C1096.56251,431.045645 1096.55463,433.591527 1096.53888,435.262509 C1096.51525,437.272416 1098.0355,438.131552 1100.80817,438.178844 C1112.94651,438.36013 1154.83599,439.171975 1154.83599,439.171975 C1157.59291,439.227148 1159.61728,441.780912 1159.03439,444.46867 C1157.9395,449.489496 1153.72534,453.225558 1148.60534,453.698478 L1100.35131,458.088745 C1097.90159,458.30944 1096.02688,460.366639 1096.02688,462.833701 L1096.02688,465.442639 C1096.02688,468.319565 1097.91734,470.833919 1100.68214,471.629999 L1132.63882,480.828279 C1136.81359,482.034223 1138.66466,486.913173 1136.32522,490.578298 C1134.1118,494.054254 1130.04731,495.890757 1125.96706,495.260198 L1094.25457,490.326074 C1090.83599,489.797981 1087.35439,489.742807 1083.92005,490.160552 L860.81408,517.290353 C835.458265,520.372211 816.396111,541.905801 816.396111,567.474968 L816.396111,687.951148 C816.396111,703.399844 822.043865,718.320447 832.283865,729.883322 L1101.68251,1034.0177 C1104.81753,1037.54883 1109.15771,1039.78731 1113.84448,1040.27599 L1138.98762,1042.92434 C1141.7603,1043.21597 1144.35968,1044.46133 1146.33679,1046.43971 L1151.16534,1051.26348 L1087.06294,1113.90952 C1077.94146,1122.82405 1063.44005,1123.0211 1054.08226,1114.34303 L816.396111,893.828664 L816.396111,1246.31903 C816.396111,1250.30732 818.089649,1254.10643 821.051372,1256.77843 L833.071557,1267.58463 C834.985649,1269.31079 836.088418,1271.76209 836.088418,1274.3395 L836.088418,1279.84112 L736.658018,1279.84112 C732.735311,1279.84112 729.442757,1276.86961 729.041034,1272.96015 L694.500726,934.231732 C692.145526,911.169037 672.736788,893.623732 649.56288,893.623732 Z M715.594338,21.8207323 C719.422523,23.6651174 722.100677,27.9608006 722.762338,32.3037758 C723.605169,37.8054031 721.958892,43.3543224 720.288985,48.666782 C717.910154,56.3123099 715.428923,63.9263099 712.884677,71.524546 C705.307077,94.1222043 697.028431,116.294235 687.710031,138.229807 C687.135015,139.593391 686.528492,140.988502 685.504492,142.052571 C684.472615,143.116639 682.905108,143.79449 681.487262,143.353099 C680.148185,142.935353 679.250215,141.626943 678.935138,140.26336 C678.612185,138.899776 678.769723,137.481018 678.943015,136.085906 C680.557785,122.292428 682.062277,108.49895 684.354462,94.7921733 C687.513108,75.8359932 691.616985,57.0295708 696.650338,38.483254 C697.768862,34.3530925 698.981908,30.1519932 701.478892,26.6760366 C703.968,23.2000801 708.040369,20.5517323 712.293908,20.9064217 C713.459692,21.0088876 714.570338,21.3241671 715.594338,21.8207323 Z M812.547446,131.006753 C813.957415,134.451182 813.185477,138.809921 811.074462,142.01789 C808.396308,146.084996 804.079754,148.71758 799.889231,151.192524 C793.863385,154.763064 787.790277,158.262666 781.701415,161.699213 C763.545108,171.937915 745.191877,181.483002 726.303015,190.271418 C725.121477,190.815275 723.916308,191.367014 722.624492,191.453716 C721.332677,191.5483 719.914831,191.067499 719.253169,189.948257 C718.630892,188.899952 718.819938,187.520604 719.410708,186.448654 C720.001477,185.376704 720.930954,184.541213 721.852554,183.73725 C730.989785,175.729151 740.040369,167.650114 749.547815,160.091288 C762.6944,149.63189 776.360862,139.826698 790.492062,130.723002 C793.634954,128.705213 796.888123,126.679542 800.543015,125.883461 C804.190031,125.095263 808.380554,125.749468 810.940554,128.484517 C811.6416,129.233306 812.177231,130.084561 812.547446,131.006753 Z M583.532209,21.8207323 C584.556209,21.3241671 585.666855,21.0088876 586.83264,20.9064217 C591.094055,20.5517323 595.166425,23.2000801 597.655532,26.6760366 C600.14464,30.1519932 601.365563,34.3530925 602.476209,38.483254 C607.51744,57.0295708 611.61344,75.8359932 614.779963,94.7921733 C617.064271,108.49895 618.568763,122.292428 620.191409,136.085906 C620.356825,137.481018 620.514363,138.899776 620.199286,140.26336 C619.876332,141.626943 618.978363,142.935353 617.647163,143.353099 C616.229317,143.79449 614.661809,143.116639 613.629932,142.052571 C612.598055,140.988502 611.999409,139.593391 611.424394,138.229807 C602.098117,116.294235 593.827348,94.1222043 586.249748,71.524546 C583.697625,63.9263099 581.224271,56.3123099 578.837563,48.666782 C577.175532,43.3543224 575.529255,37.8054031 576.364209,32.3037758 C577.025871,27.9608006 579.711902,23.6651174 583.532209,21.8207323 Z M486.578314,131.006753 C486.956406,130.084561 487.48416,129.233306 488.185206,128.484517 C490.745206,125.749468 494.943606,125.095263 498.590622,125.883461 C502.245514,126.679542 505.490806,128.705213 508.641575,130.723002 C522.764898,139.826698 536.43136,149.63189 549.585822,160.091288 C559.093268,167.650114 568.143852,175.729151 577.281083,183.73725 C578.194806,184.541213 579.13216,185.376704 579.722929,186.448654 C580.313698,187.520604 580.494868,188.899952 579.872591,189.948257 C579.210929,191.067499 577.793083,191.5483 576.501268,191.453716 C575.209452,191.367014 574.004283,190.815275 572.830622,190.271418 C553.94176,181.483002 535.588529,171.937915 517.432222,161.699213 C511.335483,158.262666 505.262375,154.763064 499.244406,151.192524 C495.053883,148.71758 490.737329,146.084996 488.059175,142.01789 C485.94816,138.809921 485.176222,134.451182 486.578314,131.006753 Z M603.178831,347.84969 L617.168246,193.906591 C617.672369,188.357671 622.327631,184.10928 627.896615,184.10928 L671.243323,184.10928 C676.812308,184.10928 681.459692,188.357671 681.963815,193.906591 L695.945354,347.84969 C696.488862,353.800591 692.747323,359.286454 687.036554,361.020491 C675.173908,364.630442 662.610215,366.624584 649.566031,366.624584 C636.521846,366.624584 623.966031,364.630442 612.103385,361.020491 C606.384738,359.286454 602.6432,353.800591 603.178831,347.84969 Z" id="Logo"></path>
        </g>
    </g>
</svg>