<?xml version="1.0" encoding="UTF-8"?>
<svg width="1300px" height="1300px" viewBox="0 0 1300 1300" version="1.1" xmlns="http://www.w3.org/2000/svg" xmlns:xlink="http://www.w3.org/1999/xlink">
    <!-- Generator: Sketch 47 (45396) - http://www.bohemiancoding.com/sketch -->
    <title>logo-main_white</title>
    <desc>Created with Sketch.</desc>
    <defs></defs>
    <g id="Assets" stroke="none" stroke-width="1" fill="none" fill-rule="evenodd">
        <g id="logo-main_white" fill="#FFFFFF">
            <g id="Page-1" transform="translate(139.000000, 20.000000)">
                <path d="M576.594338,1.8207323 C575.570338,1.32416708 574.459692,1.00888758 573.293908,0.906421739 C569.040369,0.551732298 564.968,3.20008012 562.478892,6.67603665 C559.981908,10.1519932 558.768862,14.3530925 557.650338,18.483254 C552.616985,37.0295708 548.513108,55.8359932 545.354462,74.7921733 C543.062277,88.4989497 541.557785,102.292428 539.943015,116.085906 C539.769723,117.481018 539.612185,118.899776 539.935138,120.26336 C540.250215,121.626943 541.148185,122.935353 542.487262,123.353099 C543.905108,123.79449 545.472615,123.116639 546.504492,122.052571 C547.528492,120.988502 548.135015,119.593391 548.710031,118.229807 C558.028431,96.2942354 566.307077,74.1222043 573.884677,51.524546 C576.428923,43.9263099 578.910154,36.3123099 581.288985,28.666782 C582.958892,23.3543224 584.605169,17.8054031 583.762338,12.3037758 C583.100677,7.96080062 580.422523,3.66511739 576.594338,1.8207323" id="Fill-1"></path>
                <path d="M673.547446,111.006753 C673.177231,110.084561 672.6416,109.233306 671.940554,108.484517 C669.380554,105.749468 665.190031,105.095263 661.543015,105.883461 C657.888123,106.679542 654.634954,108.705213 651.492062,110.723002 C637.360862,119.826698 623.6944,129.63189 610.547815,140.091288 C601.040369,147.650114 591.989785,155.729151 582.852554,163.73725 C581.930954,164.541213 581.001477,165.376704 580.410708,166.448654 C579.819938,167.520604 579.630892,168.899952 580.253169,169.948257 C580.914831,171.067499 582.332677,171.5483 583.624492,171.453716 C584.916308,171.367014 586.121477,170.815275 587.303015,170.271418 C606.191877,161.483002 624.545108,151.937915 642.701415,141.699213 C648.790277,138.262666 654.863385,134.763064 660.889231,131.192524 C665.079754,128.71758 669.396308,126.084996 672.074462,122.01789 C674.185477,118.809921 674.957415,114.451182 673.547446,111.006753" id="Fill-4"></path>
                <path d="M510.56288,873.623732 C487.396849,873.623732 467.988111,891.169037 465.632911,914.231732 L431.084726,1252.96015 C430.683003,1256.86961 427.398326,1259.84112 423.475618,1259.84112 L324.045218,1259.84112 L324.045218,1254.3395 C324.045218,1251.76209 325.140111,1249.31079 327.054203,1247.58463 L339.074388,1236.77843 C342.043988,1234.10643 343.737526,1230.30732 343.737526,1226.31903 L343.737526,873.828664 L106.043495,1094.34303 C96.6935877,1103.0211 82.1842954,1102.82405 73.0628185,1093.90952 L8.96829538,1031.26348 L13.7968492,1026.43971 C15.7739569,1024.46133 18.3654646,1023.21597 21.1460185,1022.92434 L46.28128,1020.27599 C50.9680492,1019.78731 55.3082338,1017.54883 58.4432492,1014.0177 L327.849772,709.883322 C338.089772,698.320447 343.737526,683.399844 343.737526,667.951148 L343.737526,547.474968 C343.737526,521.905801 324.667495,500.372211 299.319557,497.290353 L76.2057108,470.160552 C72.7792492,469.742807 69.2976492,469.797981 65.8790646,470.326074 L34.1586954,475.260198 C30.0863262,475.890757 26.0218338,474.054254 23.8084185,470.578298 C21.4689723,466.913173 23.3200492,462.034223 27.4948185,460.828279 L59.4514954,451.629999 C62.2084185,450.833919 64.1067569,448.319565 64.1067569,445.442639 L64.1067569,442.833701 C64.1067569,440.366639 62.2320492,438.30944 59.7823262,438.088745 L11.5204185,433.698478 C6.40829538,433.225558 2.18626462,429.489496 1.09924923,424.46867 C0.516356923,421.780912 2.54072615,419.227148 5.28977231,419.171975 C5.28977231,419.171975 47.1871262,418.36013 59.3254646,418.178844 C62.0981415,418.131552 63.6183877,417.272416 63.5947569,415.262509 C63.5711262,413.591527 63.5632492,411.045645 63.5632492,411.045645 C63.5553723,409.43772 62.5550031,407.995316 61.0583877,407.427813 L20.3583262,391.900298 C15.1280492,389.906155 12.2687262,384.246888 13.7889723,378.847726 C14.5609108,376.065384 17.4281108,374.425931 20.2244185,375.158956 L86.9655877,392.82249 L89.7146338,392.82249 L68.7147569,363.75372 C65.53248,359.339807 66.45408,353.199739 70.8021415,349.928714 C72.6374646,348.541484 75.1974646,348.667596 76.8910031,350.220347 L119.70208,389.512055 C122.017895,391.640192 125.058388,392.82249 128.209157,392.82249 L292.474511,392.82249 L160.961403,199.524627 C158.10208,195.315645 154.636234,191.548055 150.689895,188.340086 L116.945157,160.895006 C113.565957,158.144192 112.116603,153.643577 113.274511,149.426714 C114.37728,145.430546 119.008911,143.617689 122.522018,145.808881 L144.931865,159.752117 C147.617895,161.423099 151.060111,161.194521 153.501957,159.184614 L156.66848,156.575676 C158.771618,154.857403 159.141834,151.775546 157.511311,149.607999 L130.564357,113.658254 C128.516357,110.923204 128.476972,107.187142 130.469834,104.412683 C132.951065,100.960372 137.968665,100.629329 140.875249,103.734832 L172.115126,137.107167 C174.123742,139.25895 177.45568,139.471763 179.724234,137.603732 L181.023926,136.531782 C183.056172,134.860801 183.780849,132.078459 182.835618,129.627161 L168.460234,92.5739373 C166.861218,88.4595398 168.672911,83.8012851 172.627126,81.8386702 C176.258388,80.033695 180.669465,81.4760988 182.536295,85.0781671 L204.552295,127.428086 C205.087926,128.452745 205.733834,129.430111 206.474265,130.320776 L216.021095,141.954589 L222.692849,110.718273 C223.724726,105.886614 228.443003,102.765347 233.287311,103.711186 C236.052111,104.247161 238.037095,106.674813 238.013465,109.496565 L237.611742,161.635912 C237.572357,165.837012 239.013834,169.919881 241.684111,173.159378 C241.684111,173.159378 340.925465,294.029658 375.442142,335.867248 C407.493342,374.709683 456.283003,399.065024 510.56288,399.065024 C564.850634,399.065024 613.640295,374.709683 645.683618,335.867248 C680.208172,294.029658 779.449526,173.159378 779.449526,173.159378 C782.119803,169.919881 783.553403,165.837012 783.521895,161.635912 L783.112295,109.496565 C783.096542,106.674813 785.081526,104.247161 787.846326,103.711186 C792.690634,102.765347 797.401034,105.886614 798.432911,110.718273 L805.104665,141.954589 L814.659372,130.320776 C815.399803,129.430111 816.037834,128.452745 816.581342,127.428086 L838.597342,85.0781671 C840.464172,81.4760988 844.867372,80.033695 848.506511,81.8386702 C852.460726,83.8012851 854.264542,88.4595398 852.673403,92.5739373 L838.298018,129.627161 C837.344911,132.078459 838.077465,134.860801 840.109711,136.531782 L841.409403,137.603732 C843.677957,139.471763 847.002018,139.25895 849.010634,137.107167 L880.250511,103.734832 C883.157095,100.629329 888.174695,100.960372 890.663803,104.412683 C892.656665,107.187142 892.61728,110.923204 890.56928,113.658254 L863.622326,149.607999 C861.991803,151.775546 862.362018,154.857403 864.465157,156.575676 L867.623803,159.184614 C870.073526,161.194521 873.515742,161.423099 876.201772,159.752117 L898.603742,145.808881 C902.124726,143.617689 906.756357,145.430546 907.859126,149.426714 C909.009157,153.643577 907.56768,158.144192 904.180603,160.895006 L870.443742,188.340086 C866.489526,191.548055 863.031557,195.315645 860.172234,199.524627 L728.651249,392.82249 L892.92448,392.82249 C896.075249,392.82249 899.107865,391.640192 901.431557,389.512055 L944.242634,350.220347 C945.928295,348.667596 948.496172,348.541484 950.331495,349.928714 C954.67168,353.199739 955.601157,359.339807 952.41888,363.75372 L931.411126,392.82249 L934.168049,392.82249 L1000.90922,375.158956 C1003.69765,374.425931 1006.56485,376.065384 1007.34466,378.847726 C1008.86491,384.246888 1006.00559,389.906155 1000.76743,391.900298 L960.075249,407.427813 C958.570757,407.995316 957.578265,409.43772 957.562511,411.045645 C957.562511,411.045645 957.554634,413.591527 957.53888,415.262509 C957.515249,417.272416 959.035495,418.131552 961.808172,418.178844 C973.946511,418.36013 1015.83599,419.171975 1015.83599,419.171975 C1018.59291,419.227148 1020.61728,421.780912 1020.03439,424.46867 C1018.9395,429.489496 1014.72534,433.225558 1009.60534,433.698478 L961.351311,438.088745 C958.901588,438.30944 957.02688,440.366639 957.02688,442.833701 L957.02688,445.442639 C957.02688,448.319565 958.917342,450.833919 961.682142,451.629999 L993.638818,460.828279 C997.813588,462.034223 999.664665,466.913173 997.325218,470.578298 C995.111803,474.054254 991.047311,475.890757 986.967065,475.260198 L955.254572,470.326074 C951.835988,469.797981 948.354388,469.742807 944.920049,470.160552 L721.81408,497.290353 C696.458265,500.372211 677.396111,521.905801 677.396111,547.474968 L677.396111,667.951148 C677.396111,683.399844 683.043865,698.320447 693.283865,709.883322 L962.682511,1014.0177 C965.817526,1017.54883 970.157711,1019.78731 974.84448,1020.27599 L999.987618,1022.92434 C1002.7603,1023.21597 1005.35968,1024.46133 1007.33679,1026.43971 L1012.16534,1031.26348 L948.062942,1093.90952 C938.941465,1102.82405 924.440049,1103.0211 915.082265,1094.34303 L677.396111,873.828664 L677.396111,1226.31903 C677.396111,1230.30732 679.089649,1234.10643 682.051372,1236.77843 L694.071557,1247.58463 C695.985649,1249.31079 697.088418,1251.76209 697.088418,1254.3395 L697.088418,1259.84112 L597.658018,1259.84112 C593.735311,1259.84112 590.442757,1256.86961 590.041034,1252.96015 L555.500726,914.231732 C553.145526,891.169037 533.736788,873.623732 510.56288,873.623732" id="Fill-6"></path>
                <path d="M464.178831,327.84969 C463.6432,333.800591 467.384738,339.286454 473.103385,341.020491 C484.966031,344.630442 497.521846,346.624584 510.566031,346.624584 C523.610215,346.624584 536.173908,344.630442 548.036554,341.020491 C553.747323,339.286454 557.488862,333.800591 556.945354,327.84969 L542.963815,173.906591 C542.459692,168.357671 537.812308,164.10928 532.243323,164.10928 L488.896615,164.10928 C483.327631,164.10928 478.672369,168.357671 478.168246,173.906591 L464.178831,327.84969 Z" id="Fill-9"></path>
                <path d="M444.532209,1.8207323 C445.556209,1.32416708 446.666855,1.00888758 447.83264,0.906421739 C452.094055,0.551732298 456.166425,3.20008012 458.655532,6.67603665 C461.14464,10.1519932 462.365563,14.3530925 463.476209,18.483254 C468.51744,37.0295708 472.61344,55.8359932 475.779963,74.7921733 C478.064271,88.4989497 479.568763,102.292428 481.191409,116.085906 C481.356825,117.481018 481.514363,118.899776 481.199286,120.26336 C480.876332,121.626943 479.978363,122.935353 478.647163,123.353099 C477.229317,123.79449 475.661809,123.116639 474.629932,122.052571 C473.598055,120.988502 472.999409,119.593391 472.424394,118.229807 C463.098117,96.2942354 454.827348,74.1222043 447.249748,51.524546 C444.697625,43.9263099 442.224271,36.3123099 439.837563,28.666782 C438.175532,23.3543224 436.529255,17.8054031 437.364209,12.3037758 C438.025871,7.96080062 440.711902,3.66511739 444.532209,1.8207323" id="Fill-11"></path>
                <path d="M347.578314,111.006753 C347.956406,110.084561 348.48416,109.233306 349.185206,108.484517 C351.745206,105.749468 355.943606,105.095263 359.590622,105.883461 C363.245514,106.679542 366.490806,108.705213 369.641575,110.723002 C383.764898,119.826698 397.43136,129.63189 410.585822,140.091288 C420.093268,147.650114 429.143852,155.729151 438.281083,163.73725 C439.194806,164.541213 440.13216,165.376704 440.722929,166.448654 C441.313698,167.520604 441.494868,168.899952 440.872591,169.948257 C440.210929,171.067499 438.793083,171.5483 437.501268,171.453716 C436.209452,171.367014 435.004283,170.815275 433.830622,170.271418 C414.94176,161.483002 396.588529,151.937915 378.432222,141.699213 C372.335483,138.262666 366.262375,134.763064 360.244406,131.192524 C356.053883,128.71758 351.737329,126.084996 349.059175,122.01789 C346.94816,118.809921 346.176222,114.451182 347.578314,111.006753" id="Fill-14"></path>
                <path d="M556.947717,327.84969 C557.483348,333.800591 553.749686,339.286454 548.03104,341.020491 C536.168394,344.630442 523.612578,346.624584 510.560517,346.624584 C497.524209,346.624584 484.960517,344.630442 473.097871,341.020491 C467.387102,339.286454 463.637686,333.800591 464.181194,327.84969 L478.170609,173.906591 C478.666855,168.357671 483.322117,164.10928 488.891102,164.10928 L532.237809,164.10928 C537.806794,164.10928 542.454178,168.357671 542.966178,173.906591 L556.947717,327.84969 Z" id="Fill-16"></path>
            </g>
        </g>
    </g>
</svg>